<?xml version="1.0" encoding="utf-8"?>
<!-- Generator: Adobe Illustrator 18.1.0, SVG Export Plug-In . SVG Version: 6.00 Build 0)  -->
<svg version="1.1" id="Layer_1" xmlns="http://www.w3.org/2000/svg" xmlns:xlink="http://www.w3.org/1999/xlink" x="0px" y="0px"
	 viewBox="-36 108 72 72" enable-background="new -36 108 72 72" xml:space="preserve">
<g id="_x23_020201ff">
	<path fill="#FFFFFF" d="M-5.8,111.7C-3,109,1,108.1,4.8,108c4,0,8,0,12,0c0,4.2,0,8.4,0,12.6c-2.6,0-5.2,0-7.7,0
		c-1.6-0.1-3.3,1.1-3.6,2.8c0,2.8,0,5.6,0,8.4c3.8,0,7.6,0,11.3,0c-0.3,4.1-0.8,8.1-1.4,12.2c-3.3,0-6.7,0-10,0c0,12,0,24,0,36
		c-5,0-9.9,0-14.9,0c-0.1-12,0-24-0.1-36c-2.4,0-4.8,0-7.3,0c0-4,0-8.1,0-12.1c2.4,0,4.8,0,7.2,0c0.1-3.9-0.1-7.8,0.1-11.8
		C-9.3,117-8.1,113.9-5.8,111.7z"/>
</g>
</svg>
