<?xml version="1.0" encoding="utf-8"?>
<!-- Generator: Adobe Illustrator 18.1.0, SVG Export Plug-In . SVG Version: 6.00 Build 0)  -->
<svg version="1.1" id="Layer_1" xmlns="http://www.w3.org/2000/svg" xmlns:xlink="http://www.w3.org/1999/xlink" x="0px" y="0px"
	 viewBox="-36 108 72 72" enable-background="new -36 108 72 72" xml:space="preserve">
<g>
	<path fill="#FFFFFF" d="M34.6,137.9H23.7V127c0-0.8-0.7-1.5-1.5-1.5h-3.1c-0.8,0-1.5,0.7-1.5,1.5v10.8H6.7c-0.8,0-1.5,0.7-1.5,1.5
		v3.1c0,0.8,0.7,1.5,1.5,1.5h10.8v10.8c0,0.8,0.7,1.5,1.5,1.5h3.1c0.8,0,1.5-0.7,1.5-1.5V144h10.8c0.8,0,1.5-0.7,1.5-1.5v-3.1
		C36.1,138.6,35.4,137.9,34.6,137.9z"/>
	<path fill="#FFFFFF" d="M-2,147.4c-2.3-1.6-4.3-4-4.4-4.7c0-1.3,0.1-2,3.1-4.3c3.8-3,5.9-7,5.9-11.1c0-3.8-1.2-7.1-3.1-9.5H1
		c0.3,0,0.6-0.1,0.9-0.3l4.3-3.1c0.5-0.4,0.8-1.1,0.5-1.7c-0.2-0.6-0.8-1-1.4-1h-19.1c-2.1,0-4.2,0.4-6.3,1.1
		c-6.9,2.4-11.8,8.3-11.8,14.5c0,8.6,6.7,15.2,15.7,15.4c-0.2,0.7-0.3,1.4-0.3,2c0,1.3,0.3,2.6,1,3.8c-0.1,0-0.2,0-0.2,0
		c-8.5,0-16.3,4.2-19.2,10.4c-0.8,1.6-1.1,3.2-1.1,4.9c0,1.6,0.4,3.1,1.2,4.5c1.8,3.3,5.8,5.8,11.1,7.2c2.7,0.7,5.7,1,8.7,1
		c2.7,0,5.4-0.4,7.8-1.1c7.5-2.2,12.5-7.7,12.5-14.3C5.4,154.8,3.4,151.2-2,147.4z M-26.2,161.6c0-4.5,5.7-8.4,12.2-8.4h0.2
		c1.4,0,2.8,0.2,4.1,0.6c0.4,0.3,0.9,0.6,1.3,0.9c3,2,5,3.4,5.5,5.6c0.1,0.5,0.2,1.1,0.2,1.6c0,5.6-4.2,8.4-12.5,8.4
		C-21.2,170.3-26.2,166.5-26.2,161.6z M-20.2,119.1c1-1.2,2.3-1.8,3.8-1.8h0.2c4.2,0.1,8.2,4.8,9,10.5c0.4,3.2-0.3,6.1-1.9,7.9
		c-1,1.2-2.3,1.8-3.9,1.8l0,0h-0.1c-4.1-0.1-8.2-5-9-10.6C-22.4,123.7-21.8,120.9-20.2,119.1z"/>
</g>
</svg>
