<?xml version="1.0" encoding="utf-8"?>
<!-- Generator: Adobe Illustrator 18.1.0, SVG Export Plug-In . SVG Version: 6.00 Build 0)  -->
<svg version="1.1" id="Layer_1" xmlns="http://www.w3.org/2000/svg" xmlns:xlink="http://www.w3.org/1999/xlink" x="0px" y="0px"
	 viewBox="-36 108 72 72" enable-background="new -36 108 72 72" xml:space="preserve">
<g>
	<path fill="#FFFFFF" d="M-35.4,131.6l14.5-0.2V179l-14.5,0.2V131.6L-35.4,131.6z"/>
	<path fill="#FFFFFF" d="M-8.7,131.6l13.9-0.2v6.1v1.7c4.1-4,8.4-7.1,15.1-7.1c8,0,15.7,3.3,15.7,14.3v32.7l-14.1,0.2v-24.9
		c0-5.5-1.4-9-7.9-9c-5.8,0-8.2,1-8.2,8.7v25.1l-14.5,0.2V131.6L-8.7,131.6z"/>
	<path fill="#FFFFFF" d="M-20,116.5c0,4.4-3.6,8-8,8s-8-3.6-8-8s3.6-8,8-8C-23.5,108.6-20,112.2-20,116.5L-20,116.5z"/>
</g>
</svg>
