<?xml version="1.0" encoding="utf-8"?>
<!-- Generator: Adobe Illustrator 18.1.0, SVG Export Plug-In . SVG Version: 6.00 Build 0)  -->
<svg version="1.1" id="Layer_2" xmlns="http://www.w3.org/2000/svg" xmlns:xlink="http://www.w3.org/1999/xlink" x="0px" y="0px"
	 viewBox="-22.5 22.5 45 45" enable-background="new -22.5 22.5 45 45" xml:space="preserve">
<g>
	<path fill="#FFFFFF" d="M19.7,32.3h-39.4c-1.4,0-2.8-1.4-2.8-2.8v-2.8c0-1.4,1.4-2.8,2.8-2.8h39.4c1.4,0,2.8,1.4,2.8,2.8v2.8
		C22.5,30.9,21.1,32.3,19.7,32.3z"/>
	<path fill="#FFFFFF" d="M19.7,49.2h-39.4c-1.4,0-2.8-1.4-2.8-2.8v-2.8c0-1.4,1.4-2.8,2.8-2.8h39.4c1.4,0,2.8,1.4,2.8,2.8v2.8
		C22.5,47.8,21.1,49.2,19.7,49.2z"/>
	<path fill="#FFFFFF" d="M19.7,66.1h-39.4c-1.4,0-2.8-1.4-2.8-2.8v-2.8c0-1.4,1.4-2.8,2.8-2.8h39.4c1.4,0,2.8,1.4,2.8,2.8v2.8
		C22.5,64.7,21.1,66.1,19.7,66.1z"/>
</g>
</svg>
