<?xml version="1.0" encoding="utf-8"?>
<!-- Generator: Adobe Illustrator 18.1.0, SVG Export Plug-In . SVG Version: 6.00 Build 0)  -->
<svg version="1.1"
	 id="svg2" inkscape:version="0.48.4 r9939" sodipodi:docname="Twitter_bird_logo_2012.svg" xmlns:dc="http://purl.org/dc/elements/1.1/" xmlns:cc="http://creativecommons.org/ns#" xmlns:rdf="http://www.w3.org/1999/02/22-rdf-syntax-ns#" xmlns:svg="http://www.w3.org/2000/svg" xmlns:sodipodi="http://sodipodi.sourceforge.net/DTD/sodipodi-0.dtd" xmlns:inkscape="http://www.inkscape.org/namespaces/inkscape"
	 xmlns="http://www.w3.org/2000/svg" xmlns:xlink="http://www.w3.org/1999/xlink" x="0px" y="0px" viewBox="-75 107 72 72"
	 enable-background="new -75 107 72 72" xml:space="preserve">
<sodipodi:namedview  inkscape:window-height="962" inkscape:window-y="-8" inkscape:pageopacity="0.0" inkscape:window-maximized="1" inkscape:current-layer="layer1" inkscape:window-width="1280" fit-margin-right="0" fit-margin-bottom="0" inkscape:document-units="px" inkscape:pageshadow="2" inkscape:window-x="-8" fit-margin-left="0" fit-margin-top="0" showgrid="false" inkscape:cy="50.181142" inkscape:cx="101.29413" inkscape:zoom="3.7200571" borderopacity="1.0" bordercolor="#666666" pagecolor="#ffffff" id="base">
	</sodipodi:namedview>
<g id="layer1" transform="translate(-282.32053,-396.30734)" inkscape:groupmode="layer" inkscape:label="Layer 1">
	<path id="path5" inkscape:connector-curvature="0" fill="#FFFFFF" d="M279.3,517c-2.6,1.2-5.5,2-8.5,2.3c3-1.8,5.4-4.7,6.5-8.2
		c-2.9,1.7-6,2.9-9.4,3.6c-2.7-2.9-6.5-4.7-10.8-4.7c-8.2,0-14.8,6.6-14.8,14.8c0,1.2,0.1,2.3,0.4,3.4c-12.3-0.6-23.2-6.5-30.4-15.4
		c-1.3,2.2-2,4.7-2,7.4c0,5.1,2.6,9.6,6.6,12.3c-2.4-0.1-4.7-0.7-6.7-1.8c0,0.1,0,0.1,0,0.2c0,7.2,5.1,13.1,11.8,14.5
		c-1.2,0.3-2.5,0.5-3.9,0.5c-1,0-1.9-0.1-2.8-0.3c1.9,5.9,7.3,10.1,13.8,10.3c-5.1,4-11.4,6.3-18.3,6.3c-1.2,0-2.4-0.1-3.5-0.2
		c6.5,4.2,14.3,6.6,22.6,6.6c27.2,0,42-22.5,42-42c0-0.6,0-1.3,0-1.9C274.8,522.5,277.3,519.9,279.3,517L279.3,517z"/>
</g>
</svg>
