<?xml version="1.0" encoding="utf-8"?>
<!-- Generator: Adobe Illustrator 18.1.0, SVG Export Plug-In . SVG Version: 6.00 Build 0)  -->
<svg version="1.1" id="Layer_1" xmlns:sketch="http://www.bohemiancoding.com/sketch/ns"
	 xmlns="http://www.w3.org/2000/svg" xmlns:xlink="http://www.w3.org/1999/xlink" x="0px" y="0px" viewBox="-57 4 137 137"
	 enable-background="new -57 4 137 137" xml:space="preserve">
<title>Slice 1</title>
<desc>Created with Sketch.</desc>
<g id="Page-1" sketch:type="MSPage">
	<g id="help" sketch:type="MSLayerGroup">
		<path id="Shape" sketch:type="MSShapeGroup" fill="#CDD1D2" d="M-43,18c-12.6,12.6-13.6,32.5-3,46.4c0.2-1.6,0.5-3.1,0.9-4.7
			c-7.6-12.3-6.2-28.7,4.5-39.3C-30,9.7-13.6,8.3-1.3,15.9c1.5-0.3,3.1-0.6,4.7-0.9C-10.4,4.4-30.4,5.4-43,18L-43,18z M63.6,20.4
			c10.6,10.6,12.1,27,4.5,39.3c0.3,1.5,0.6,3.1,0.9,4.7c10.6-13.8,9.6-33.7-3-46.3C53.4,5.4,33.4,4.4,19.6,15
			c1.6,0.2,3.1,0.5,4.7,0.9C36.6,8.3,53,9.7,63.6,20.4L63.6,20.4z M69,80.7c-0.2,1.6-0.5,3.1-0.9,4.7c7.6,12.3,6.1,28.7-4.5,39.3
			c-10.6,10.6-27,12.1-39.3,4.5c-1.5,0.3-3.1,0.6-4.7,0.9c13.8,10.7,33.8,9.7,46.4-3C78.6,114.4,79.6,94.5,69,80.7L69,80.7z
			 M-40.6,124.6c-10.6-10.6-12.1-27-4.5-39.3c-0.3-1.5-0.6-3.1-0.9-4.7c-10.6,13.8-9.6,33.7,3,46.4c12.6,12.6,32.6,13.6,46.4,3
			c-1.6-0.2-3.1-0.5-4.7-0.9C-13.6,136.7-30,135.3-40.6,124.6L-40.6,124.6z"/>
		<path id="Shape_1_" sketch:type="MSShapeGroup" fill="#CD4E61" d="M11.5,5C-25.8,5-56,35.2-56,72.5S-25.8,140,11.5,140
			S79,109.8,79,72.5S48.8,5,11.5,5L11.5,5z M11.5,106.2c-18.6,0-33.7-15.1-33.7-33.7s15.1-33.7,33.7-33.7s33.7,15.1,33.7,33.7
			S30.1,106.2,11.5,106.2L11.5,106.2z"/>
		<path id="Shape_2_" sketch:type="MSShapeGroup" fill="#D25F71" d="M11.5,14.4c-32.1,0-58,26-58,58s26,58,58,58s58.1-26,58.1-58
			S43.6,14.4,11.5,14.4L11.5,14.4z M11.5,126.5c-29.8,0-54-24.2-54-54c0-29.8,24.2-54,54-54s54,24.2,54,54
			C65.5,102.3,41.3,126.5,11.5,126.5L11.5,126.5z"/>
		<g id="Group" transform="translate(11.000000, 24.000000)" sketch:type="MSShapeGroup">
			<path id="Shape_3_" fill="#D3495D" d="M-56,11.6l25,25c1.1-2.9,2.5-5.5,4.3-8l-24-24C-52.7,6.8-54.4,9.2-56,11.6L-56,11.6z
				 M-36.4,105l25-25c-2.9-1.1-5.5-2.5-8-4.3l-24,24C-41.2,101.6-38.9,103.4-36.4,105L-36.4,105z M20.4,75.7c-2.4,1.8-5.1,3.2-8,4.3
				l25,25c2.5-1.6,4.8-3.4,7-5.3L20.4,75.7L20.4,75.7z M51.7,4.6l-24,24c1.8,2.4,3.2,5.1,4.3,8l25-25C55.4,9.1,53.6,6.8,51.7,4.6
				L51.7,4.6z"/>
		</g>
		<path id="Shape_4_" sketch:type="MSShapeGroup" fill="#C54B5D" d="M11.5,30.6c-23.1,0-41.8,18.7-41.8,41.8s18.7,41.8,41.8,41.8
			s41.8-18.7,41.8-41.8S34.6,30.6,11.5,30.6L11.5,30.6z M11.5,106.2c-18.6,0-33.7-15.1-33.7-33.7s15.1-33.7,33.7-33.7
			s33.7,15.1,33.7,33.7S30.1,106.2,11.5,106.2L11.5,106.2z"/>
		<path id="Shape_5_" sketch:type="MSShapeGroup" fill="#B23C4D" d="M-26.2,54.4l6.2,6.2c0.3-0.7,0.5-1.4,0.8-2l0.1-0.1
			c0.6-1.3,1.3-2.6,2.1-3.9l0.1-0.1c0.4-0.6,0.8-1.2,1.2-1.8l0,0l-5.8-5.8C-23.4,49.2-24.9,51.7-26.2,54.4L-26.2,54.4z M44.5,46.8
			l-5.8,5.8c0.4,0.6,0.8,1.2,1.2,1.8l0.1,0.1c0.8,1.2,1.5,2.5,2.1,3.9l0.1,0.1c0.3,0.7,0.6,1.3,0.9,2l6.2-6.2
			C47.9,51.7,46.3,49.1,44.5,46.8L44.5,46.8z M31.4,99.7L31.4,99.7c-0.6,0.4-1.2,0.8-1.8,1.2l-0.2,0.1c-1.2,0.8-2.5,1.5-3.8,2.1
			l-0.2,0.1c-0.7,0.3-1.3,0.6-2,0.8l6.2,6.2c2.7-1.3,5.2-2.9,7.6-4.7L31.4,99.7L31.4,99.7z M-0.5,104c-0.7-0.3-1.4-0.5-2-0.9
			l-0.1-0.1c-1.3-0.6-2.6-1.3-3.9-2.1l-0.1-0.1c-0.6-0.4-1.2-0.8-1.8-1.2l0,0l-5.8,5.8c2.3,1.8,4.9,3.4,7.6,4.7L-0.5,104L-0.5,104z"
			/>
		<path id="Shape_6_" sketch:type="MSShapeGroup" fill="#E4596D" d="M-38.2,42.5l3,3c1.5-2.6,3.2-5,5-7.3l-2.9-2.9
			C-34.9,37.5-36.7,39.9-38.2,42.5L-38.2,42.5z M56,35.3l-2.9,2.9c1.9,2.3,3.5,4.7,5,7.2l3-3C59.6,39.9,57.9,37.5,56,35.3L56,35.3z
			 M45.8,114.2c-2.3,1.9-4.7,3.5-7.3,5l3,3c2.5-1.5,4.9-3.2,7.2-5.1L45.8,114.2L45.8,114.2z M-15.6,119.2c-2.6-1.5-5-3.2-7.2-5
			l-2.9,2.9c2.2,1.9,4.6,3.6,7.2,5.1L-15.6,119.2L-15.6,119.2z"/>
		<g id="Group_1_" transform="translate(14.000000, 14.000000)" sketch:type="MSShapeGroup">
			<path id="Shape_7_" fill="#EFF0F0" d="M-18.2,88.4c-6.1-3.2-11-8.2-14.2-14.3l-24.4,24.4c4,5.4,8.8,10.2,14.2,14.2L-18.2,88.4
				L-18.2,88.4z M13.1,28.6c6.1,3.2,11.1,8.2,14.3,14.2l24.4-24.4C47.8,13,43,8.2,37.6,4.2L13.1,28.6L13.1,28.6z M-56.8,18.4
				l24.4,24.4c3.2-6.1,8.2-11.1,14.2-14.2L-42.6,4.2C-48,8.2-52.8,13-56.8,18.4L-56.8,18.4z M51.8,98.6L27.4,74.1
				c-3.2,6.1-8.2,11.1-14.2,14.2l24.4,24.4C43,108.8,47.8,104,51.8,98.6L51.8,98.6z"/>
		</g>
		<path id="Shape_8_" sketch:type="MSShapeGroup" fill="#F2F2F2" d="M-21.8,120l2.9-2.9c-5.6-3.8-10.4-8.7-14.2-14.2l-2.9,2.9
			C-32.2,111.3-27.4,116.1-21.8,120L-21.8,120z M59,105.8l-2.9-2.9c-3.8,5.6-8.7,10.4-14.2,14.2l2.9,2.9
			C50.3,116.2,55.2,111.3,59,105.8L59,105.8z M44.8,24.9l-2.9,2.9c5.6,3.8,10.4,8.6,14.2,14.2l2.9-2.9
			C55.1,33.6,50.3,28.8,44.8,24.9L44.8,24.9z M-36,39.2l2.9,2.9c3.8-5.6,8.7-10.4,14.2-14.2l-2.9-2.9C-27.3,28.8-32.2,33.7-36,39.2
			L-36,39.2z"/>
		<path id="Shape_9_" sketch:type="MSShapeGroup" fill="#E7E7E7" d="M-18.4,56.9c1.2-2.3,2.6-4.4,4.3-6.3l0-0.1
			c1.1-1.3,2.3-2.5,3.5-3.5l0.1,0c1.9-1.7,4-3.1,6.3-4.3l0,0l-6-6c-5.8,3.5-10.7,8.4-14.2,14.2L-18.4,56.9L-18.4,56.9z M33.1,36.6
			l-6,6l0,0c2.3,1.2,4.4,2.6,6.3,4.3l0,0c1.3,1.1,2.5,2.3,3.5,3.5l0.1,0.1c1.1,1.3,2.1,2.6,3,4.1l0,0c0.5,0.7,0.9,1.5,1.3,2.2l6-6
			C43.8,45,38.9,40.2,33.1,36.6L33.1,36.6z M41.4,88.1c-1.2,2.3-2.6,4.4-4.3,6.3l0,0.1c-1.1,1.3-2.3,2.5-3.5,3.5l-0.1,0
			c-1.9,1.7-4,3.1-6.3,4.3l6,6c5.8-3.5,10.7-8.4,14.2-14.2L41.4,88.1L41.4,88.1z M-6.4,101.1L-6.4,101.1c-1.4-0.9-2.8-1.9-4.1-3
			l-0.1-0.1c-1.3-1.1-2.4-2.3-3.5-3.5l0,0c-1.7-1.9-3.1-4-4.3-6.3l-6,6c3.5,5.8,8.4,10.7,14.2,14.3l6-6
			C-4.9,102-5.7,101.5-6.4,101.1L-6.4,101.1z"/>
	</g>
</g>
</svg>
