<?xml version="1.0" encoding="utf-8"?>
<!-- Generator: Adobe Illustrator 18.1.0, SVG Export Plug-In . SVG Version: 6.00 Build 0)  -->
<svg version="1.1" id="Layer_1" xmlns:sketch="http://www.bohemiancoding.com/sketch/ns"
	 xmlns="http://www.w3.org/2000/svg" xmlns:xlink="http://www.w3.org/1999/xlink" x="0px" y="0px" viewBox="-58 5 135 135"
	 enable-background="new -58 5 135 135" xml:space="preserve">
<title>Slice 1</title>
<desc>Created with Sketch.</desc>
<g id="Page-1" sketch:type="MSPage">
	<g id="analytics" sketch:type="MSLayerGroup">
		<path id="Shape" sketch:type="MSShapeGroup" fill="#689E70" d="M9.5,5C-27.8,5-58,35.2-58,72.5S-27.8,140,9.5,140
			S77,109.8,77,72.5S46.8,5,9.5,5L9.5,5z"/>
		<path id="Shape_1_" sketch:type="MSShapeGroup" fill="#344E5A" d="M8.8,30.6c-1.1,0-2,0.9-2,2V115c0,1.1,0.9,2,2,2
			c1.1,0,2-0.9,2-2V32.7C10.8,31.6,9.9,30.6,8.8,30.6L8.8,30.6z M-0.6,101.4l-11,16.4c-0.8,0.8-0.8,2,0,2.7c0.8,0.8,2,0.8,2.7,0
			l11-16.4c0.8-0.8,0.8-2,0-2.7C1.4,100.6,0.2,100.6-0.6,101.4L-0.6,101.4z M29.2,117.8l-11-16.4c-0.8-0.8-2-0.8-2.7,0
			c-0.8,0.8-0.8,2,0,2.7l11,16.4c0.8,0.8,2,0.8,2.7,0S30,118.5,29.2,117.8L29.2,117.8z"/>
		<path id="Shape_2_" sketch:type="MSShapeGroup" fill="#F3F3F3" d="M50,40.1v59.4h-81V40.1H50L50,40.1z"/>
		<path id="Shape_3_" sketch:type="MSShapeGroup" fill="#D8AC57" d="M50,99.5h-81c-1.5,0-2.7,1.2-2.7,2.7c0,1.5,1.2,2.7,2.7,2.7h81
			c1.5,0,2.7-1.2,2.7-2.7C52.7,100.7,51.5,99.5,50,99.5L50,99.5z M-31,40.1h81c1.5,0,2.7-1.2,2.7-2.7c0-1.5-1.2-2.7-2.7-2.7h-81
			c-1.5,0-2.7,1.2-2.7,2.7C-33.7,38.9-32.5,40.1-31,40.1L-31,40.1z"/>
		<path id="Shape_4_" sketch:type="MSShapeGroup" fill="#E1E1E0" d="M-31,40.1h81v2.7h-81V40.1L-31,40.1z"/>
		<path id="Shape_5_" sketch:type="MSShapeGroup" fill="#34517E" d="M-2.7,55c-8.9,0-16.2,7.3-16.2,16.2s7.3,16.2,16.2,16.2
			s16.2-7.3,16.2-16.2H-2.7V55L-2.7,55z"/>
		<path id="Shape_6_" sketch:type="MSShapeGroup" fill="#C05565" d="M0,52.2c8.9,0,16.2,7.3,16.2,16.2c0-0.1-16.2,0-16.2,0
			S0.1,52.2,0,52.2L0,52.2z M27.7,53.6c1.9,0,3.4,1.5,3.4,3.4c0,1.9-1.5,3.4-3.4,3.4s-3.4-1.5-3.4-3.4
			C24.3,55.1,25.9,53.6,27.7,53.6L27.7,53.6z"/>
		<path id="Shape_7_" sketch:type="MSShapeGroup" fill="#34517E" d="M27.7,75.2c1.9,0,3.4,1.5,3.4,3.4s-1.5,3.4-3.4,3.4
			s-3.4-1.5-3.4-3.4S25.9,75.2,27.7,75.2L27.7,75.2z"/>
		<path id="Shape_8_" sketch:type="MSShapeGroup" fill="#D2D7D9" d="M24.3,63v2.7h14.8V63H24.3L24.3,63z M35.2,67.1H24.3v2.7h10.8
			V67.1L35.2,67.1z M24.3,87.3h14.8v-2.7H24.3V87.3L24.3,87.3z"/>
		<g id="Group" transform="translate(52.300000, 99.900000)" sketch:type="MSShapeGroup">
			<path id="Shape_9_" fill="#263A44" d="M-45.5,5h4v4.1h-4V5z M-31.7,5h-4.6l2.7,4.1h4.6L-31.7,5z M-57.9,9.1h4.6l2.7-4.1h-4.6
				L-57.9,9.1z"/>
		</g>
		<g id="Group_1_" transform="translate(24.300000, 29.700000)" sketch:type="MSShapeGroup">
			<path id="Shape_10_" fill="#EFC75E" d="M-55.3,75.2h81c1.5,0,2.7-1.2,2.7-2.7H-58C-58,74-56.8,75.2-55.3,75.2L-55.3,75.2z
				 M25.7,5h-81C-56.8,5-58,6.2-58,7.7h86.4C28.4,6.2,27.2,5,25.7,5L25.7,5z"/>
		</g>
	</g>
</g>
</svg>
