<?xml version="1.0" encoding="UTF-8" standalone="no"?>
<svg width="135px" height="135px" viewBox="0 0 135 135" version="1.1" xmlns="http://www.w3.org/2000/svg" xmlns:xlink="http://www.w3.org/1999/xlink" xmlns:sketch="http://www.bohemiancoding.com/sketch/ns">
    <!-- Generator: Sketch 3.2.2 (9983) - http://www.bohemiancoding.com/sketch -->
    <title>Slice 1</title>
    <desc>Created with Sketch.</desc>
    <defs></defs>
    <g id="Page-1" stroke="none" stroke-width="1" fill="none" fill-rule="evenodd" sketch:type="MSPage">
        <g id="Icon---On-Camera-3" sketch:type="MSLayerGroup">
            <path d="M67.3267327,0 C104.509941,0 134.653465,30.21975 134.653465,67.5 C134.653465,104.77755 104.509941,135 67.3267327,135 C30.1435248,135 0,104.77755 0,67.5 C0,30.21975 30.1435248,0 67.3267327,0 L67.3267327,0 Z" id="Shape" fill="#EFC45F" sketch:type="MSShapeGroup"></path>
            <path d="M71.3663366,78.8724 C71.3663366,65.8746 58.4045941,55.33515 42.4158416,55.33515 C26.4270891,55.33515 13.4653465,65.87325 13.4653465,78.8724 C13.4653465,91.87155 26.4270891,102.4083 42.4158416,102.4083 C43.8216238,102.4083 45.192396,102.3003 46.5443168,102.14235 C52.5579406,106.839 58.6186931,107.99325 58.6994851,107.8515 C56.5867723,105.66855 55.3008317,102.8997 54.5077228,100.23885 C64.4505347,96.5115 71.3663366,88.35885 71.3663366,78.8724 L71.3663366,78.8724 Z" id="Shape" fill="#E17952" sketch:type="MSShapeGroup"></path>
            <path d="M32.990099,75.6 C31.1305347,75.6 29.6237624,77.11065 29.6237624,78.975 C29.6237624,80.83935 31.1305347,82.35 32.990099,82.35 C34.8496634,82.35 36.3564356,80.83935 36.3564356,78.975 C36.3564356,77.11065 34.8496634,75.6 32.990099,75.6 L32.990099,75.6 Z M43.7623762,75.6 C41.9028119,75.6 40.3960396,77.11065 40.3960396,78.975 C40.3960396,80.83935 41.9028119,82.35 43.7623762,82.35 C45.6219406,82.35 47.1287129,80.83935 47.1287129,78.975 C47.1287129,77.11065 45.6219406,75.6 43.7623762,75.6 L43.7623762,75.6 Z" id="Shape" fill="#FCAF92" sketch:type="MSShapeGroup"></path>
            <path d="M71.3663366,78.8724 C71.3663366,67.96305 62.2233663,58.81275 49.8365941,56.14515 L49.8217822,56.59065 C49.8217822,69.05385 57.8511683,79.97805 69.9255446,86.17725 C70.8506139,83.87685 71.3663366,81.4266 71.3663366,78.8724 L71.3663366,78.8724 Z" id="Shape" fill="#BF6645" sketch:type="MSShapeGroup"></path>
            <path d="M17.5049505,78.7347 C17.5049505,68.75685 24.4342178,60.17895 34.3958812,56.26935 C22.3120792,59.1003 13.4653465,68.13855 13.4653465,78.8724 C13.4653465,90.16785 23.256,99.5949 36.3093069,101.87235 C25.3323564,98.35695 17.5049505,89.3403 17.5049505,78.7347 L17.5049505,78.7347 Z" id="Shape" fill="#BF6645" sketch:type="MSShapeGroup"></path>
            <path d="M96.950495,18.88515 C73.1531881,18.88515 53.8613861,34.5573 53.8613861,53.8893 C53.8613861,67.9995 64.1462178,80.1522 78.9540594,85.68855 C77.7731485,89.6373 75.850297,93.74535 72.7128713,96.984 C72.8340594,97.1919 81.8275644,95.47875 90.7618218,88.5249 C92.7843168,88.7625 94.8485545,88.8894 96.950495,88.8894 C113.107564,88.8894 127.178851,81.6615 134.553822,70.9749 C134.618455,69.77745 134.653465,68.57325 134.653465,67.35825 C134.653465,50.6223 128.532119,35.32545 118.423683,23.54805 C112.101703,20.5875 104.772515,18.88515 96.950495,18.88515 Z" id="Shape" fill="#1EAFEA" sketch:type="MSShapeGroup"></path>
            <path d="M78.0990099,48.6 C75.1245149,48.6 72.7128713,51.0192 72.7128713,54.00135 C72.7128713,56.9862 75.1245149,59.40135 78.0990099,59.40135 C81.073505,59.40135 83.4851485,56.9862 83.4851485,54.00135 C83.4851485,51.0192 81.073505,48.6 78.0990099,48.6 L78.0990099,48.6 Z M96.950495,48.6 C93.976,48.6 91.5643564,51.0192 91.5643564,54.00135 C91.5643564,56.9862 93.976,59.40135 96.950495,59.40135 C99.9249901,59.40135 102.336634,56.9862 102.336634,54.00135 C102.336634,51.0192 99.9249901,48.6 96.950495,48.6 L96.950495,48.6 Z M115.80198,48.6 C112.827485,48.6 110.415842,51.0192 110.415842,54.00135 C110.415842,56.9862 112.827485,59.40135 115.80198,59.40135 C118.776475,59.40135 121.188119,56.9862 121.188119,54.00135 C121.188119,51.0192 118.776475,48.6 115.80198,48.6 L115.80198,48.6 Z" id="Shape" fill="#FFFFFF" sketch:type="MSShapeGroup"></path>
            <path d="M76.7524752,95.634 C79.889901,92.3967 81.8127525,88.28865 82.9936634,84.33855 C68.1858218,78.80085 57.9009901,66.6495 57.9009901,52.53795 C57.9009901,38.556 67.9973069,26.4924 82.5870099,20.8845 C65.8536238,25.69185 53.8613861,38.64915 53.8613861,53.88795 C53.8613861,67.99815 64.1462178,80.15085 78.9540594,85.6872 C77.7731485,89.6373 75.850297,93.74535 72.7128713,96.984 C72.777505,97.0947 75.3224554,96.66 79.0146535,95.2128 C77.6304158,95.58135 76.7888317,95.69745 76.7524752,95.634 L76.7524752,95.634 Z" id="Shape" fill="#1994C7" sketch:type="MSShapeGroup"></path>
            <g id="Group" transform="translate(71.366337, 49.950000)" fill="#1994C7" sketch:type="MSShapeGroup">
                <path d="M6.73267327,9.45 C3.75817822,9.45 1.34653465,7.03485 1.34653465,4.05 C1.34653465,2.9025 1.70875248,1.8441 2.31738614,0.9693 C0.919683168,1.9467 0,3.564 0,5.4 C0,8.38485 2.41164356,10.8 5.38613861,10.8 C7.21742574,10.8 8.83192079,9.8793 9.80411881,8.478 C8.93291089,9.0882 7.87722772,9.45 6.73267327,9.45 L6.73267327,9.45 Z M25.5841584,9.45 C22.6096634,9.45 20.1980198,7.03485 20.1980198,4.05 C20.1980198,2.9025 20.5602376,1.8441 21.1688713,0.9693 C19.7711683,1.9467 18.8514851,3.564 18.8514851,5.4 C18.8514851,8.38485 21.2631287,10.8 24.2376238,10.8 C26.0689109,10.8 27.6834059,9.8793 28.655604,8.478 C27.784396,9.0882 26.7287129,9.45 25.5841584,9.45 L25.5841584,9.45 Z M44.4356436,9.45 C41.4611485,9.45 39.049505,7.03485 39.049505,4.05 C39.049505,2.9025 39.4117228,1.8441 40.0203564,0.9693 C38.6226535,1.9467 37.7029703,3.564 37.7029703,5.4 C37.7029703,8.38485 40.1146139,10.8 43.0891089,10.8 C44.920396,10.8 46.5348911,9.8793 47.5070891,8.478 C46.6358812,9.0882 45.580198,9.45 44.4356436,9.45 L44.4356436,9.45 Z" id="Shape"></path>
            </g>
        </g>
    </g>
</svg>