<?xml version="1.0" encoding="utf-8"?>
<!-- Generator: Adobe Illustrator 18.1.0, SVG Export Plug-In . SVG Version: 6.00 Build 0)  -->
<svg version="1.1" id="Layer_1" xmlns:sketch="http://www.bohemiancoding.com/sketch/ns"
	 xmlns="http://www.w3.org/2000/svg" xmlns:xlink="http://www.w3.org/1999/xlink" x="0px" y="0px" viewBox="-58 5 135 135"
	 enable-background="new -58 5 135 135" xml:space="preserve">
<title>Slice 1</title>
<desc>Created with Sketch.</desc>
<g id="Page-1" sketch:type="MSPage">
	<g id="camera" sketch:type="MSLayerGroup">
		<path id="Shape" sketch:type="MSShapeGroup" fill="#EFC45F" d="M9.5,5C46.8,5,77,35.2,77,72.5C77,109.8,46.8,140,9.5,140
			S-58,109.8-58,72.5C-58,35.2-27.8,5,9.5,5L9.5,5z"/>
		<path id="Shape_3_" sketch:type="MSShapeGroup" fill="#383D48" d="M-33.7,49.5h9.5c1.5,0,2.7,1.2,2.7,2.7V59
			c0,1.5-1.2,2.7-2.7,2.7h-9.5c-1.5,0-2.7-1.2-2.7-2.7v-6.8C-36.4,50.8-35.2,49.5-33.7,49.5L-33.7,49.5z"/>
		<path fill="#585F6C" d="M32.5,41.5h-58c-2.2,0-4.1,1.8-4.1,4v37.8c0,2.2,1.8,4,4.1,4h8.1v4.1c0,1.5,1.2,2.7,2.7,2.7H0
			c3,0,5.4,2.4,5.4,5.4v14.8c0,1.5,1.2,2.7,2.7,2.7h12.1c1.5,0,2.7-1.2,2.7-2.7V94.1h6.8c1.5,0,2.7-1.2,2.7-2.7v-4.1h4V45.5
			C36.5,43.3,34.7,41.5,32.5,41.5z"/>
		<path id="Shape_5_" sketch:type="MSShapeGroup" fill="#689E70" d="M26.4,73.8c1.9,0,3.4,1.5,3.4,3.4s-1.5,3.4-3.4,3.4
			S23,79.1,23,77.2S24.5,73.8,26.4,73.8L26.4,73.8z"/>
		<path id="Shape_6_" sketch:type="MSShapeGroup" fill="#EFC45F" d="M15.6,73.8c1.9,0,3.4,1.5,3.4,3.4s-1.5,3.4-3.4,3.4
			s-3.4-1.5-3.4-3.4S13.7,73.8,15.6,73.8L15.6,73.8z"/>
		<path id="Shape_7_" sketch:type="MSShapeGroup" fill="#BFC4CE" d="M29.8,52.9c0,2.6-2.1,4.7-4.7,4.7s-4.7-2.1-4.7-4.7
			c0-2.6,2.1-4.7,4.7-4.7S29.8,50.3,29.8,52.9z"/>
		<path id="Shape_8_" sketch:type="MSShapeGroup" fill="#383D48" d="M36.5,56.3h6.8v18.9h-6.8V56.3L36.5,56.3z"/>
		<path id="Shape_9_" sketch:type="MSShapeGroup" fill="#575E6D" d="M51.3,52.2c2.2,0,4.1,1.8,4.1,4v18.9c0,2.2-1.8,4.1-4.1,4.1H50
			c-2.2,0-6.8-4.1-6.8-4.1V56.3c0,0,4.5-4,6.8-4H51.3z"/>
		<path id="Shape_10_" sketch:type="MSShapeGroup" fill="#4F5561" d="M-17.5,87.3h49.9v2.7h-49.9V87.3z"/>
		<path id="Shape_11_" sketch:type="MSShapeGroup" fill="#BFC4CE" d="M3.4,79.2c1.1,0,2-0.9,2-2s-0.9-2-2-2h-33.1v4.1H3.4z"/>
		<path id="Shape_12_" sketch:type="MSShapeGroup" fill="#96A2BB" d="M25,48.2c-0.2,0-0.5,0-0.7,0.1v3.3c0,0.4,0.3,0.7,0.7,0.7
			c0.4,0,0.7-0.3,0.7-0.7v-3.3C25.5,48.2,25.3,48.2,25,48.2L25,48.2z"/>
		<path id="Shape_13_" sketch:type="MSShapeGroup" fill="#383D48" d="M25,57.7c-2.6,0-4.7-2.1-4.7-4.7c0-1,0.3-1.8,0.8-2.6
			c-1.3,0.8-2.1,2.3-2.1,3.9c0,2.6,2.1,4.7,4.7,4.7c1.7,0,3.1-0.8,3.9-2.1C26.9,57.4,26,57.7,25,57.7L25,57.7z"/>
		<g id="Group" transform="translate(58.050000, 89.100000)" sketch:type="MSShapeGroup">
			<path id="Shape_14_" fill="#4F5561" d="M-52.6,15.8H-35v2.7h-17.5V15.8z M-53.3,7.7H-35V5h-23C-56,5-54.3,6.1-53.3,7.7L-53.3,7.7
				z M-52.6,10.4H-35v2.7h-17.5V10.4z M-52.6,21.2H-35v2.7h-17.5V21.2z"/>
		</g>
	</g>
</g>
</svg>
