<?xml version="1.0" encoding="utf-8"?>
<!-- Generator: Adobe Illustrator 18.1.0, SVG Export Plug-In . SVG Version: 6.00 Build 0)  -->
<svg version="1.1" id="Layer_1" xmlns:sketch="http://www.bohemiancoding.com/sketch/ns"
	 xmlns="http://www.w3.org/2000/svg" xmlns:xlink="http://www.w3.org/1999/xlink" x="0px" y="0px" viewBox="-58 5 135 135"
	 enable-background="new -58 5 135 135" xml:space="preserve">
<title>Slice 1</title>
<desc>Created with Sketch.</desc>
<g id="Page-1" sketch:type="MSPage">
	<g id="diploma" sketch:type="MSLayerGroup">
		<path id="Shape" sketch:type="MSShapeGroup" fill="#1EAFEA" d="M9.5,5C-27.8,5-58,35.2-58,72.5c0,37.3,30.2,67.5,67.5,67.5
			S77,109.8,77,72.5C77,35.2,46.8,5,9.5,5L9.5,5z"/>
		<path id="Shape_1_" sketch:type="MSShapeGroup" fill="#F3F3F3" d="M-25.6,102.2c0,1.1,1.2,17.9,2,29.1c9.8,5.5,21.1,8.7,33.1,8.7
			C46.8,140,77,109.8,77,72.5c0-11.7-3-22.8-8.3-32.4h-83.5c-4.5,0-8.1,3.6-8.1,8.1L-25.6,102.2z"/>
		<path id="Shape_2_" sketch:type="MSShapeGroup" fill="#DBDBDB" d="M33.8,107.6L-6.6,52.2L-24,69.6l-1.6,31.9l2,29.9
			c7.4,4.1,15.6,6.9,24.3,8.1L33.8,107.6L33.8,107.6z"/>
		<path id="Shape_3_" sketch:type="MSShapeGroup" fill="#E7E7E7" d="M-25.6,100.8l2,30.5c9.8,5.5,21.1,8.7,33.1,8.7
			c27.2,0,50.5-16,61.3-39.2H-25.6L-25.6,100.8z"/>
		<path id="Shape_4_" sketch:type="MSShapeGroup" fill="#CFCFCF" d="M33.8,107.6l-4.9-6.8h-54.4l0,0.6l2,29.9
			c7.4,4.1,15.6,6.9,24.3,8.1L33.8,107.6L33.8,107.6z"/>
		<path id="Shape_5_" sketch:type="MSShapeGroup" fill="#3E4E5C" d="M16.9,68.5L-4,78l16.9,37.7l9-8.1l11.9-0.1L16.9,68.5L16.9,68.5
			z"/>
		<path id="Shape_6_" sketch:type="MSShapeGroup" fill="#52606D" d="M1.5,69.8l20.1,9.3L5.3,115.7l-8.7-8.1l-11.5,0L1.5,69.8
			L1.5,69.8z"/>
		<path id="Shape_7_" sketch:type="MSShapeGroup" fill="#394754" d="M16.9,68.5L-4,78l10,22.3c1.2-0.6,2.4-1.5,3.5-1.5
			c1.9,0,4,2.4,5.7,2c1.8-0.4,2.7-3.5,4.3-4.3c1.7-0.8,4.6,0.4,6-0.8c1-0.8,1.1-2.7,1.4-4.2L16.9,68.5L16.9,68.5z"/>
		<path id="Shape_8_" sketch:type="MSShapeGroup" fill="#4C5965" d="M1.5,69.8l-9.4,21.8c0.3,1.5,0.4,3.4,1.4,4.2
			c1.4,1.2,4.3,0,6,0.8c1.6,0.8,2.5,3.9,4.3,4.3c1.7,0.4,3.8-2,5.7-2c0.9,0,1.9,0.6,2.8,1.1l9.3-20.9L1.5,69.8L1.5,69.8z"/>
		<path id="Shape_9_" sketch:type="MSShapeGroup" fill="#EDC36E" d="M35.2,72.5c0,1.9-2.7,3.5-3.1,5.3c-0.4,1.8,1.4,4.5,0.6,6.1
			c-0.8,1.7-3.9,1.9-5.1,3.3c-1.1,1.5-0.6,4.6-2.1,5.8c-1.4,1.2-4.3,0-6,0.8c-1.6,0.8-2.5,3.9-4.3,4.3c-1.7,0.4-3.8-2-5.7-2
			s-4,2.4-5.7,2c-1.8-0.4-2.7-3.5-4.3-4.3c-1.7-0.8-4.6,0.4-6-0.8c-1.4-1.2-0.9-4.3-2.1-5.8c-1.1-1.5-4.3-1.6-5.1-3.3
			c-0.8-1.7,1-4.3,0.6-6.1c-0.4-1.8-3.1-3.4-3.1-5.3c0-1.9,2.7-3.5,3.1-5.3c0.4-1.8-1.4-4.5-0.6-6.1c0.8-1.7,3.9-1.9,5.1-3.3
			c1.1-1.5,0.6-4.6,2.1-5.8c1.4-1.2,4.3,0,6-0.8c1.6-0.8,2.5-3.9,4.3-4.3c1.7-0.4,3.8,2,5.7,2s4-2.4,5.7-2c1.8,0.4,2.7,3.5,4.3,4.3
			c1.7,0.8,4.6-0.4,6,0.8c1.4,1.2,0.9,4.3,2.1,5.8c1.1,1.5,4.3,1.6,5.1,3.3c0.8,1.7-1,4.3-0.6,6.1C32.4,69,35.2,70.6,35.2,72.5
			L35.2,72.5z"/>
		<path id="Shape_10_" sketch:type="MSShapeGroup" fill="#D5AE63" d="M9.5,53.6c-10.4,0-18.9,8.5-18.9,18.9
			c0,10.4,8.5,18.9,18.9,18.9c10.5,0,18.9-8.5,18.9-18.9C28.4,62.1,19.9,53.6,9.5,53.6L9.5,53.6z M9.5,87.4
			c-8.2,0-14.8-6.7-14.8-14.9c0-8.2,6.6-14.9,14.8-14.9c8.2,0,14.8,6.7,14.8,14.9C24.3,80.7,17.7,87.4,9.5,87.4L9.5,87.4z M9.5,64.4
			c-4.5,0-8.1,3.6-8.1,8.1c0,4.5,3.6,8.1,8.1,8.1c4.5,0,8.1-3.6,8.1-8.1C17.6,68,14,64.4,9.5,64.4L9.5,64.4z"/>
		<g id="Group" transform="translate(106.000000, 49.000000)" sketch:type="MSShapeGroup">
			<path id="Shape_11_" fill="#CDD1D2" d="M-29.7,33h-25c-1.5,0-2.7,1.2-2.7,2.7c0,1.5,1.2,2.7,2.7,2.7h24
				C-30.3,36.6-29.9,34.8-29.7,33L-29.7,33z M-57.3,8.6c0,1.5,1.2,2.7,2.7,2.7h24.5c-0.3-1.8-0.7-3.6-1.2-5.4h-23.3
				C-56.1,5.9-57.3,7.2-57.3,8.6L-57.3,8.6z M-57.3,22.1c0,1.5,1.2,2.7,2.7,2.7H-29l0-1.4c0-1.4-0.1-2.7-0.1-4h-25.5
				C-56.1,19.5-57.3,20.7-57.3,22.1L-57.3,22.1z"/>
		</g>
	</g>
</g>
</svg>
