<?xml version="1.0" encoding="utf-8"?>
<!-- Generator: Adobe Illustrator 18.1.0, SVG Export Plug-In . SVG Version: 6.00 Build 0)  -->
<svg version="1.1" xmlns="http://www.w3.org/2000/svg" xmlns:xlink="http://www.w3.org/1999/xlink" x="0px" y="0px"
	 viewBox="-183 223 133 55" enable-background="new -183 223 133 55" xml:space="preserve">
<g id="Layer_2">
</g>
<g id="Layer_1" xmlns:sketch="http://www.bohemiancoding.com/sketch/ns">
	<title>Slice 1</title>
	<desc>Created with Sketch.</desc>
	<g>
		<polygon fill="#FFFFFF" points="-146.5,249.5 -143.7,249.5 -145.1,245.7 		"/>
		<path fill="#FFFFFF" d="M-127.5,245.2c-0.2-0.1-0.4-0.2-0.6-0.2s-0.5,0-0.7,0h-1.2v2.6h1.1c0.2,0,0.5,0,0.7-0.1
			c0.2,0,0.4-0.1,0.6-0.2s0.3-0.2,0.4-0.4c0.1-0.2,0.2-0.4,0.2-0.6c0-0.3-0.1-0.5-0.2-0.6C-127.2,245.4-127.3,245.3-127.5,245.2z"/>
		<path fill="#FFFFFF" d="M-116.3,223c-36.3,0-65.8,11.3-65.8,25.2c0,7.3,8.1,13.9,21.1,18.5c-3.5,5.1-6.5,9.9-5.8,10.5
			c0.7,0.6,10.6-2.7,21.1-6.4c8.9,1.7,18.9,2.7,29.5,2.7c36.3,0,65.8-11.3,65.8-25.2C-50.5,234.3-79.9,223-116.3,223z M-158,253.6
			c-0.7,0.3-1.5,0.5-2.5,0.5c-0.8,0-1.6-0.1-2.4-0.4c-0.7-0.3-1.3-0.7-1.9-1.2c-0.5-0.5-0.9-1.1-1.2-1.8c-0.3-0.7-0.5-1.5-0.5-2.4
			c0-0.9,0.2-1.7,0.5-2.4c0.3-0.7,0.7-1.3,1.3-1.8c0.5-0.5,1.2-0.9,1.9-1.2s1.5-0.4,2.3-0.4c0.8,0,1.5,0.1,2.3,0.4
			c0.8,0.3,1.4,0.7,1.8,1.2l-1.8,1.8c-0.2-0.3-0.6-0.6-1-0.8c-0.4-0.2-0.8-0.2-1.2-0.2c-0.5,0-0.9,0.1-1.3,0.3
			c-0.4,0.2-0.7,0.4-1,0.7c-0.3,0.3-0.5,0.7-0.7,1.1s-0.2,0.9-0.2,1.3c0,0.5,0.1,1,0.2,1.4c0.2,0.4,0.4,0.8,0.6,1.1s0.6,0.5,1,0.7
			c0.4,0.2,0.8,0.2,1.3,0.2c0.5,0,1-0.1,1.4-0.3c0.4-0.2,0.7-0.5,0.9-0.8l1.8,1.7C-156.7,252.8-157.3,253.3-158,253.6z
			 M-142.1,253.8l-0.9-2.2h-4.3l-0.8,2.2h-2.9l4.6-11h2.6l4.6,11H-142.1z M-124.6,247.8c-0.2,0.4-0.6,0.8-1,1.1s-0.9,0.5-1.4,0.6
			c-0.5,0.1-1.1,0.2-1.6,0.2h-1.3v4.1h-2.7v-11h4c0.6,0,1.2,0.1,1.7,0.2s1,0.3,1.4,0.6c0.4,0.3,0.7,0.6,0.9,1s0.3,1,0.3,1.6
			C-124.3,246.8-124.4,247.3-124.6,247.8z M-109.3,253.8h-7.7v-11h7.4v2.3h-4.8v2.1h4.6v2.1h-4.6v2.3h5.1V253.8z M-94,253.6
			c-0.7,0.3-1.5,0.5-2.5,0.5c-0.8,0-1.6-0.1-2.4-0.4c-0.7-0.3-1.3-0.7-1.9-1.2c-0.5-0.5-0.9-1.1-1.2-1.8s-0.5-1.5-0.5-2.4
			c0-0.9,0.2-1.7,0.5-2.4s0.7-1.3,1.3-1.8c0.5-0.5,1.2-0.9,1.9-1.2s1.5-0.4,2.3-0.4c0.8,0,1.5,0.1,2.3,0.4c0.8,0.3,1.4,0.7,1.8,1.2
			l-1.8,1.8c-0.2-0.3-0.6-0.6-1-0.8c-0.4-0.2-0.8-0.2-1.2-0.2c-0.5,0-0.9,0.1-1.3,0.3c-0.4,0.2-0.7,0.4-1,0.7
			c-0.3,0.3-0.5,0.7-0.7,1.1s-0.2,0.9-0.2,1.3c0,0.5,0.1,1,0.2,1.4c0.2,0.4,0.4,0.8,0.6,1.1c0.3,0.3,0.6,0.5,1,0.7
			c0.4,0.2,0.8,0.2,1.3,0.2c0.5,0,1-0.1,1.4-0.3c0.4-0.2,0.7-0.5,0.9-0.8l1.8,1.7C-92.7,252.8-93.3,253.3-94,253.6z M-77.8,253.6
			c-0.7,0.3-1.5,0.5-2.5,0.5c-0.8,0-1.6-0.1-2.4-0.4c-0.7-0.3-1.3-0.7-1.9-1.2c-0.5-0.5-0.9-1.1-1.2-1.8c-0.3-0.7-0.5-1.5-0.5-2.4
			c0-0.9,0.2-1.7,0.5-2.4c0.3-0.7,0.7-1.3,1.3-1.8c0.5-0.5,1.2-0.9,1.9-1.2s1.5-0.4,2.3-0.4c0.8,0,1.5,0.1,2.3,0.4
			c0.8,0.3,1.4,0.7,1.8,1.2l-1.8,1.8c-0.2-0.3-0.6-0.6-1-0.8c-0.4-0.2-0.8-0.2-1.2-0.2c-0.5,0-0.9,0.1-1.3,0.3
			c-0.4,0.2-0.7,0.4-1,0.7c-0.3,0.3-0.5,0.7-0.7,1.1s-0.2,0.9-0.2,1.3c0,0.5,0.1,1,0.2,1.4c0.2,0.4,0.4,0.8,0.6,1.1s0.6,0.5,1,0.7
			c0.4,0.2,0.8,0.2,1.3,0.2c0.5,0,1-0.1,1.4-0.3c0.4-0.2,0.7-0.5,0.9-0.8l1.8,1.7C-76.4,252.8-77,253.3-77.8,253.6z M-66.5,253.8
			h-2.7v-11h2.7V253.8z"/>
	</g>
</g>
</svg>
